# xmcd CD database file
#
# Track frame offsets:
#	150
#	12390
#	32067
#	49305
#	67767
#	84712
#	97652
#	111580
#	127067
#	143485
#	158235
#	172437
#
# Disc length: 2446 seconds
#
# Revision: 0
# Processed by: cddbd v1.5.2PL0 Copyright (c) Steve Scherf et al.
# Submitted via: CDex 1.70beta2
#
DISCID=a4098c0c
DTITLE=Django Reinhardt - Djangology
DYEAR=1994
DGENRE=Jazz
TTITLE0=Minor Swing
TTITLE1=Beyond The Sea (La Mer)
TTITLE2=Bricktop
TTITLE3=Honeysuckle Rose
TTITLE4=Heavy Artillery (Artillerie Lourde)
TTITLE5=Djangology
TTITLE6=After You've Gone
TTITLE7=Where Are You, My Love? (Ou Es-Tu, Mon Amour? )
TTITLE8=I Saw Stars
TTITLE9=Lover Man (Oh, Where Can You Be)
TTITLE10=Menilmontant
TTITLE11=Swing 42
EXTD=YEAR: 1994
EXTT0=
EXTT1=
EXTT2=
EXTT3=
EXTT4=
EXTT5=
EXTT6=
EXTT7=
EXTT8=
EXTT9=
EXTT10=
EXTT11=
PLAYORDER=
